<?xml version="1.0" encoding="UTF-8" standalone="no"?>
<svg
   viewBox="0 0 256 256"
   version="1.1"
   id="svg9"
   sodipodi:docname="8935914_animals_fish_manta_marine_ocean_icon.svg"
   width="256"
   height="256"
   inkscape:version="1.4.2 (ebf0e940, 2025-05-08)"
   xmlns:inkscape="http://www.inkscape.org/namespaces/inkscape"
   xmlns:sodipodi="http://sodipodi.sourceforge.net/DTD/sodipodi-0.dtd"
   xmlns="http://www.w3.org/2000/svg"
   xmlns:svg="http://www.w3.org/2000/svg">
  <sodipodi:namedview
     id="namedview9"
     pagecolor="#ffffff"
     bordercolor="#000000"
     borderopacity="0.25"
     inkscape:showpageshadow="2"
     inkscape:pageopacity="0.0"
     inkscape:pagecheckerboard="0"
     inkscape:deskcolor="#d1d1d1"
     inkscape:zoom="2.8569644"
     inkscape:cx="102.90643"
     inkscape:cy="119.18244"
     inkscape:window-width="2064"
     inkscape:window-height="1438"
     inkscape:window-x="154"
     inkscape:window-y="228"
     inkscape:window-maximized="0"
     inkscape:current-layer="svg9" />
  <defs
     id="defs1">
    <style
       id="style1">.cls-1{fill:#ebafa5;}.cls-2{fill:#f1ccc6;}</style>
  </defs>
  <g
     id="g9"
     transform="matrix(5.1210548,0,0,5.1176459,-30.76876,-40.82379)">
    <path
       class="cls-1"
       d="m 21,39.4 c -3,2.46 -6,0.92 -7.62,-0.38 a 1.65,1.65 0 0 1 0,-2.52 34.1,34.1 0 0 1 5.53,-3.5 l 4.71,-0.91 1.8,2.91 A 6.73,6.73 0 0 1 21,39.4 Z"
       id="path114601-4"
       style="fill:#808080;fill-opacity:1" />
    <path
       class="cls-1"
       d="m 24.58,43 c -2.46,3 -0.93,6 0.37,7.62 a 1.66,1.66 0 0 0 2.53,0 34.12,34.12 0 0 0 3.52,-5.54 c 0,0 1,-4.6 0.65,-4.76 -0.35,-0.16 -3.77,-3 -3.77,-3 0,0 -3.42,3.89 -3.3,5.68 z"
       id="path116102-3"
       style="fill:#808080;fill-opacity:1" />
    <path
       class="cls-2"
       d="M 43.43,9 A 2.66,2.66 0 0 0 41.74,9.77 L 39.53,12 C 38,13.54 35.63,14.5 34,13 29.3,8.73 22.22,8.51 17.73,13 a 2.51,2.51 0 0 0 -0.15,3.19 11.41,11.41 0 0 1 1.3,10.19 c -0.92,2.61 -1.07,5.84 0.9,7.82 l 1.34,1.34 a 2.63,2.63 0 0 1 0.14,3.58 l -14,16.19 a 1,1 0 0 0 1.38,1.38 l 16.19,-14 a 2.63,2.63 0 0 1 3.58,0.14 l 1.34,1.34 c 2,2 5.21,1.82 7.83,0.9 a 11.4,11.4 0 0 1 10.18,1.3 2.51,2.51 0 0 0 3.24,-0.1 C 55.49,41.78 55.27,34.71 51,30 49.52,28.38 50.48,26 52,24.47 l 2.22,-2.21 a 2.67,2.67 0 0 0 0.61,-2.79 0.85,0.85 0 0 0 -1.43,-0.15 l -0.95,1 a 2.07,2.07 0 0 1 -2.93,0 l -5.81,-5.81 a 2.07,2.07 0 0 1 0,-2.93 l 1,-0.95 A 0.85,0.85 0 0 0 44.56,9.2 2.58,2.58 0 0 0 43.43,9 Z"
       id="rect109217-4"
       style="fill:#ffffff;fill-opacity:1" />
    <path
       class="cls-1"
       d="m 54.21,19 a 1.07,1.07 0 0 0 -0.8,0.31 l -0.95,1 a 2.06,2.06 0 0 1 -1.61,0.6 l -0.22,0.24 -2.28,2.25 c -1.6,1.61 -2.59,4 -1.07,5.72 4.41,4.84 4.64,12.14 0,16.78 l -0.14,0.11 0.65,0.41 A 2.51,2.51 0 0 0 51,46.27 C 55.47,41.78 55.25,34.7 51,30 49.52,28.38 50.48,26 52,24.47 l 2.21,-2.21 A 2.65,2.65 0 0 0 54.83,19.47 0.68,0.68 0 0 0 54.21,19 Z"
       id="path144825"
       style="fill:#808080;fill-opacity:1" />
    <path
       d="M 6.58,57.42 A 2,2 0 0 0 8,58 1.87,1.87 0 0 0 9.33,57.46 l 13,-11.2 a 7.73,7.73 0 0 0 1.86,5 2.6,2.6 0 0 0 2,1 v 0 a 2.59,2.59 0 0 0 2,-0.92 31.24,31.24 0 0 0 3.2,-4.94 9.93,9.93 0 0 0 6.5,-0.29 10.41,10.41 0 0 1 9.29,1.19 3.5,3.5 0 0 0 4.5,-0.3 c 4.81,-4.8 4.82,-12.39 0,-17.65 -1,-1.13 -0.21,-2.95 1,-4.16 L 54.93,23 a 3.68,3.68 0 0 0 0.85,-3.84 1.69,1.69 0 0 0 -1.23,-1.07 2,2 0 0 0 -1.84,0.57 l -1,1 a 1.08,1.08 0 0 1 -1.51,0 l -5.82,-5.82 a 1.06,1.06 0 0 1 -0.31,-0.75 1.08,1.08 0 0 1 0.31,-0.76 l 1,-1 A 2,2 0 0 0 46,9.45 1.7,1.7 0 0 0 44.92,8.22 3.66,3.66 0 0 0 41,9.07 l -2.21,2.21 c -0.87,0.87 -2.86,2.19 -4.16,1 a 12.78,12.78 0 0 0 -17.65,0 3.5,3.5 0 0 0 -0.27,4.45 10.42,10.42 0 0 1 1.19,9.29 10,10 0 0 0 -0.3,6.46 32.59,32.59 0 0 0 -5,3.21 2.67,2.67 0 0 0 0.06,4.08 7.87,7.87 0 0 0 4.83,1.88 h 0.17 L 6.58,54.62 a 2,2 0 0 0 0,2.8 z M 26.71,50 a 0.64,0.64 0 0 1 -0.49,0.21 0.59,0.59 0 0 1 -0.48,-0.22 c -3.17,-4 -0.27,-6.38 -0.23,-6.49 a 1.64,1.64 0 0 1 2.22,0.08 l 1.34,1.34 a 5.48,5.48 0 0 0 0.6,0.5 A 30,30 0 0 1 26.71,50 Z M 14,38.24 a 0.65,0.65 0 0 1 -0.23,-0.49 0.63,0.63 0 0 1 0.21,-0.48 29.71,29.71 0 0 1 4.58,-3 6.31,6.31 0 0 0 0.53,0.63 l 1.34,1.34 a 1.64,1.64 0 0 1 0.08,2.22 C 20.4,38.53 17.88,41.31 14,38.24 Z m 8,1.55 A 3.64,3.64 0 0 0 21.82,34.85 L 20.48,33.51 C 18.87,31.9 19.04,28.92 19.82,26.73 a 12.44,12.44 0 0 0 -1.42,-11.09 1.55,1.55 0 0 1 0,-1.91 10.22,10.22 0 0 1 7.27,-3 11.38,11.38 0 0 1 7.63,3 c 2.1,1.92 5.05,0.79 6.91,-1.07 l 2.21,-2.21 a 1.7,1.7 0 0 1 1,-0.48 h 0.33 l -0.82,0.83 a 3.07,3.07 0 0 0 0,4.34 L 48.82,21 a 3.07,3.07 0 0 0 4.34,0 l 0.83,-0.81 a 1.66,1.66 0 0 1 -0.47,1.37 l -2.21,2.21 c -1.86,1.86 -3,4.81 -1.07,6.92 4,4.45 4.06,10.85 0,14.89 a 1.56,1.56 0 0 1 -1.92,0 12.44,12.44 0 0 0 -11.08,-1.43 c -2.21,0.78 -5.14,1 -6.78,-0.66 L 29.12,42.15 A 3.64,3.64 0 0 0 24.21,42 L 8,56 Z"
       id="path1" />
    <path
       d="m 32.5,41.07 a 1,1 0 0 0 0.92,0.61 1,1 0 0 0 0.4,-0.09 20.65,20.65 0 0 0 6.29,-4.34 19.7,19.7 0 0 0 5,-7.95 1,1 0 1 0 -1.91,-0.58 17.62,17.62 0 0 1 -4.46,7.11 18.45,18.45 0 0 1 -5.74,3.93 1,1 0 0 0 -0.5,1.31 z"
       id="path2" />
    <path
       d="m 28.17,25.31 a 17.71,17.71 0 0 1 7.13,-4.47 1,1 0 0 0 -0.58,-1.91 19.79,19.79 0 0 0 -8,5 20.53,20.53 0 0 0 -4.34,6.29 1,1 0 0 0 0.52,1.32 1.09,1.09 0 0 0 0.39,0.08 1,1 0 0 0 0.92,-0.61 18.53,18.53 0 0 1 3.96,-5.7 z"
       id="path3" />
    <path
       d="m 27.4,15.28 3,1.74 a 1,1 0 0 0 1.37,-0.37 1,1 0 0 0 -0.37,-1.36 l -3,-1.75 a 1.0034441,1.0034441 0 0 0 -1,1.74 z"
       id="path4" />
    <path
       d="m 24.14,18.54 3,1.75 a 1,1 0 0 0 0.49,0.13 1,1 0 0 0 0.87,-0.5 1,1 0 0 0 -0.36,-1.37 l -3,-1.74 a 1,1 0 0 0 -1.37,0.37 1,1 0 0 0 0.37,1.36 z"
       id="path5" />
    <path
       d="M 47.35,32.21 A 1,1 0 0 0 47,33.58 l 1.74,3 a 1,1 0 0 0 1.37,0.36 1,1 0 0 0 0.37,-1.36 l -1.75,-3 a 1,1 0 0 0 -1.38,-0.37 z"
       id="path6" />
    <path
       d="m 44.08,35.48 a 1,1 0 0 0 -0.37,1.36 l 1.75,3 a 1,1 0 0 0 1.36,0.37 1,1 0 0 0 0.37,-1.37 l -1.74,-3 a 1,1 0 0 0 -1.37,-0.36 z"
       id="path7" />
    <path
       d="m 40.71,18.72 a 1,1 0 0 0 0.71,-0.3 l 0.69,-0.69 a 1,1 0 0 0 0,-1.41 1,1 0 0 0 -1.42,0 L 40,17 a 1,1 0 0 0 0.71,1.71 z"
       id="path8" />
    <path
       d="M 46.28,24.29 A 1,1 0 0 0 47,24 l 0.69,-0.69 a 1,1 0 0 0 0,-1.42 1,1 0 0 0 -1.41,0 l -0.69,0.69 a 1,1 0 0 0 0.7,1.71 z"
       id="path9" />
  </g>
</svg>
