<?xml version="1.0" encoding="UTF-8" standalone="no"?>
<svg
   viewBox="0 0 256 256"
   version="1.1"
   id="svg9"
   sodipodi:docname="app_icon.svg"
   width="256"
   height="256"
   inkscape:version="1.4.2 (ebf0e940, 2025-05-08)"
   xmlns:inkscape="http://www.inkscape.org/namespaces/inkscape"
   xmlns:sodipodi="http://sodipodi.sourceforge.net/DTD/sodipodi-0.dtd"
   xmlns="http://www.w3.org/2000/svg"
   xmlns:svg="http://www.w3.org/2000/svg">
  <sodipodi:namedview
     id="namedview9"
     pagecolor="#ffffff"
     bordercolor="#000000"
     borderopacity="0.25"
     inkscape:showpageshadow="2"
     inkscape:pageopacity="0.0"
     inkscape:pagecheckerboard="0"
     inkscape:deskcolor="#d1d1d1"
     inkscape:zoom="0.31703124"
     inkscape:cx="-962.05031"
     inkscape:cy="159.2903"
     inkscape:window-width="2064"
     inkscape:window-height="1438"
     inkscape:window-x="154"
     inkscape:window-y="172"
     inkscape:window-maximized="0"
     inkscape:current-layer="svg9" />
  <defs
     id="defs1">
    <style
       id="style1">.cls-1{fill:#ebafa5;}.cls-2{fill:#f1ccc6;}</style>
    <clipPath
       clipPathUnits="userSpaceOnUse"
       id="clipPath6">
      <path
         d="M 0,980 H 1400 V 0 H 0 Z"
         transform="translate(-648.08192,-890.12002)"
         id="path6" />
    </clipPath>
  </defs>
  <path
     id="path5"
     d="m 0,0 -7.041,5.761 -119.852,-101.611 13.441,14.722 c 0,0 -17.441,17.121 -24.802,26.882 -7.361,9.761 -12.322,29.684 -14.802,34.484 -2.48,4.8 -16.721,16.002 -20.242,18.242 -3.52,2.24 -5.44,1.36 -10.641,2.48 -5.2,1.12 -4.4,4.961 -2.4,6.321 2,1.36 12.001,-1.6 16.882,-4.641 4.88,-3.04 15.441,-12.401 15.441,-12.401 l -1.04,8.241 2.8,4.56 -4.72,5.281 6.32,-1.68 0.401,3.68 -4.801,2.4 2.4,0.72 h -4.32 l 8.641,3.201 -2.641,5.04 c 0,0 -5.92,-2.16 -5.76,-1.92 0.16,0.24 4.64,4.08 4.64,4.08 l -2.16,3.201 -6.961,-3.361 5.601,5.841 -6.801,5.441 -4.88,-5.201 3.04,6.801 -3.12,2.08 -4.161,-6.161 2.241,6.561 -11.922,2.24 c 0,0 -7.6,-1.227 -13.041,-29.496 0,0 -11.521,1.28 -14.401,0 -2.881,-1.28 -4.694,-4.481 -4.694,-4.481 0,0 11.734,-2.346 17.068,-5.44 5.334,-3.094 12.588,-12.375 15.362,-20.269 2.773,-7.894 1.387,-24.856 0,-42.778 -1.387,-17.921 -3.945,-37.977 1.601,-55.472 5.546,-17.495 16.214,-27.096 23.468,-34.35 7.254,-7.254 11.521,-12.375 11.521,-12.375 0,0 -5.68,-31.523 -6.641,-33.843 -0.96,-2.321 -5.2,-2.961 -9.12,-2.721 -3.921,0.24 -5.681,-1.04 -6.561,-2.24 -0.88,-1.2 -1.2,-2.72 -1.2,-2.72 0,0 1.6,1.44 2.8,1.6 1.2,0.16 2.32,-0.32 7.281,-0.56 4.96,-0.24 8.641,-0.32 11.841,0.24 3.2,0.56 3.68,-0.24 5.921,-0.72 2.24,-0.48 2.64,0.56 4.64,0.32 2,-0.24 2.56,-0.88 2.56,-0.88 0,0 1.12,2.48 -1.2,3.44 -2.32,0.96 -5.36,-0.32 -7.521,0.08 -2.16,0.4 -2.96,1.76 -3.2,4.481 -0.24,2.72 6.081,25.522 7.761,31.123 1.68,5.6 1.28,7.121 -0.08,8.881 -1.36,1.76 -7.281,7.601 -7.281,7.601 l 6.721,-4.561 16.322,3.681 -19.603,14.881 23.363,-14.161 6.401,0.08 -5.521,-1.281 c 0,0 1.92,-6.32 2.16,-10.721 0.24,-4.4 0,-32.403 -0.72,-34.643 -0.72,-2.24 -3.6,-6.881 -5.28,-7.441 -1.681,-0.56 -5.441,-0.72 -7.521,-0.88 -2.08,-0.16 -3.04,-2.4 -3.04,-2.4 0,0 2.64,1.04 4.96,0.88 2.32,-0.16 8.001,-0.64 10.721,-0.16 2.72,0.48 4.241,2.16 4.241,2.16 0,0 1.2,-2.88 3.12,-2.88 1.92,0 4.4,0.08 5.6,0 1.201,-0.08 1.921,-0.4 1.921,-0.4 0,0 1.2,1.12 -0.8,2.24 -2.001,1.12 -6.161,0.24 -7.361,1.68 -1.2,1.44 -2.24,5.121 -2.4,7.681 -0.16,2.56 2.32,36.804 2.32,36.804 0,0 1.68,5.6 3.76,7.6 2.08,2.001 8.721,3.601 8.721,3.601 l -3.76,10.961 5.84,-10.721 7.121,2.48 c 0,0 -1.44,22.402 -6.081,35.044 l -7.84,-11.041 c 0,0 3.2,14.081 16.801,26.242 13.602,12.161 78.088,46.245 78.088,46.245 l 3.361,11.201 -20.162,-10.241 20.162,23.683 v 8.48 l -10.081,-4.48 z"
     style="fill:#dfdfdf;fill-opacity:1;fill-rule:nonzero;stroke:#080808;stroke-opacity:1;stroke-width:1.94630514;stroke-dasharray:none"
     transform="matrix(1.0275881,0,0,-1.0275881,237.67811,42.740626)"
     clip-path="url(#clipPath6)" />
</svg>
